<svg width="11" height="14" viewBox="0 0 11 14" fill="none" xmlns="http://www.w3.org/2000/svg">
<path d="M5.528 0.895001L7 2H8L9.473 0.896001C9.52196 0.859566 9.58007 0.837423 9.64086 0.832033C9.70166 0.826644 9.76275 0.838219 9.81736 0.865471C9.87197 0.892724 9.91795 0.934586 9.95019 0.986406C9.98244 1.03822 9.99968 1.09797 10 1.159V4.5C10 5.222 9.478 5.684 9 6.073V10L9.8 12.4L10.506 12.753C10.6545 12.8273 10.7794 12.9415 10.8667 13.0828C10.9539 13.2241 11.0001 13.3869 11 13.553C11 13.8 10.8 14 10.553 14H2.25C1.017 14 0 13 0 11.713C0 9.543 0.453 7.93 0.745 6.845C0.891 6.302 1.035 5.895 1.138 5.614C1.196 5.457 1.253 5.311 1.33 5.165C1.779 4.31 3.074 4.955 2.672 5.833C2.6248 5.93744 2.58045 6.04315 2.539 6.15C2.448 6.382 2.325 6.743 2.193 7.234C1.947 8.149 1.674 9.521 1.558 11.367C1.926 9.307 3.98 7.239 5.635 5.758C5.29 5.432 5.001 5.038 5.001 4.5V1.158C5.001 0.888001 5.311 0.733001 5.528 0.895001V0.895001Z" fill="#F1CDB3"/>
</svg>
